<svg xmlns="http://www.w3.org/2000/svg" width="64" height="64" viewBox="0 0 64 64" fill="none">
  <path d="M32 8C18.7452 8 8 18.7452 8 32C8 45.2548 18.7452 56 32 56C45.2548 56 56 45.2548 56 32C56 18.7452 45.2548 8 32 8Z" fill="url(#paint0_linear)" opacity="0.2"/>
  <rect x="16" y="16" width="18" height="14" rx="2" stroke="url(#paint1_linear)" stroke-width="2" stroke-linecap="round" stroke-linejoin="round"/>
  <rect x="38" y="16" width="10" height="14" rx="2" stroke="url(#paint2_linear)" stroke-width="2" stroke-linecap="round" stroke-linejoin="round"/>
  <rect x="16" y="34" width="32" height="14" rx="2" stroke="url(#paint3_linear)" stroke-width="2" stroke-linecap="round" stroke-linejoin="round"/>
  <path d="M20 21H30" stroke="url(#paint4_linear)" stroke-width="2" stroke-linecap="round" stroke-linejoin="round"/>
  <path d="M20 25H24" stroke="url(#paint5_linear)" stroke-width="2" stroke-linecap="round" stroke-linejoin="round"/>
  <path d="M41 21H45" stroke="url(#paint6_linear)" stroke-width="2" stroke-linecap="round" stroke-linejoin="round"/>
  <path d="M41 25H43" stroke="url(#paint7_linear)" stroke-width="2" stroke-linecap="round" stroke-linejoin="round"/>
  <path d="M20 39H35" stroke="url(#paint8_linear)" stroke-width="2" stroke-linecap="round" stroke-linejoin="round"/>
  <path d="M20 43H28" stroke="url(#paint9_linear)" stroke-width="2" stroke-linecap="round" stroke-linejoin="round"/>
  <circle cx="43" cy="41" r="3" fill="url(#paint10_radial)"/>
  <defs>
    <linearGradient id="paint0_linear" x1="8" y1="32" x2="56" y2="32" gradientUnits="userSpaceOnUse">
      <stop stop-color="#5E60CE"/>
      <stop offset="1" stop-color="#FF6EC7"/>
    </linearGradient>
    <linearGradient id="paint1_linear" x1="16" y1="23" x2="34" y2="23" gradientUnits="userSpaceOnUse">
      <stop stop-color="#5E60CE"/>
      <stop offset="1" stop-color="#7E7FF1"/>
    </linearGradient>
    <linearGradient id="paint2_linear" x1="38" y1="23" x2="48" y2="23" gradientUnits="userSpaceOnUse">
      <stop stop-color="#FF6EC7"/>
      <stop offset="1" stop-color="#FF8ED6"/>
    </linearGradient>
    <linearGradient id="paint3_linear" x1="16" y1="41" x2="48" y2="41" gradientUnits="userSpaceOnUse">
      <stop stop-color="#5E60CE"/>
      <stop offset="1" stop-color="#FF6EC7"/>
    </linearGradient>
    <linearGradient id="paint4_linear" x1="20" y1="21.5" x2="30" y2="21.5" gradientUnits="userSpaceOnUse">
      <stop stop-color="#BFC9F1"/>
      <stop offset="1" stop-color="#F2FAFF"/>
    </linearGradient>
    <linearGradient id="paint5_linear" x1="20" y1="25.5" x2="24" y2="25.5" gradientUnits="userSpaceOnUse">
      <stop stop-color="#BFC9F1"/>
      <stop offset="1" stop-color="#F2FAFF"/>
    </linearGradient>
    <linearGradient id="paint6_linear" x1="41" y1="21.5" x2="45" y2="21.5" gradientUnits="userSpaceOnUse">
      <stop stop-color="#BFC9F1"/>
      <stop offset="1" stop-color="#F2FAFF"/>
    </linearGradient>
    <linearGradient id="paint7_linear" x1="41" y1="25.5" x2="43" y2="25.5" gradientUnits="userSpaceOnUse">
      <stop stop-color="#BFC9F1"/>
      <stop offset="1" stop-color="#F2FAFF"/>
    </linearGradient>
    <linearGradient id="paint8_linear" x1="20" y1="39.5" x2="35" y2="39.5" gradientUnits="userSpaceOnUse">
      <stop stop-color="#BFC9F1"/>
      <stop offset="1" stop-color="#F2FAFF"/>
    </linearGradient>
    <linearGradient id="paint9_linear" x1="20" y1="43.5" x2="28" y2="43.5" gradientUnits="userSpaceOnUse">
      <stop stop-color="#BFC9F1"/>
      <stop offset="1" stop-color="#F2FAFF"/>
    </linearGradient>
    <radialGradient id="paint10_radial" cx="0" cy="0" r="1" gradientUnits="userSpaceOnUse" gradientTransform="translate(43 41) rotate(90) scale(3)">
      <stop stop-color="#FFFFFF"/>
      <stop offset="1" stop-color="#FF6EC7"/>
    </radialGradient>
  </defs>
</svg> 