<svg width="42" height="42" viewBox="0 0 42 42" fill="none" xmlns="http://www.w3.org/2000/svg">
<path d="M24.5 31.5H36.75M5.25 31.5H8.75M8.75 31.5C8.75 33.9162 10.7088 35.875 13.125 35.875C15.5412 35.875 17.5 33.9162 17.5 31.5C17.5 29.0838 15.5412 27.125 13.125 27.125C10.7088 27.125 8.75 29.0838 8.75 31.5ZM35 21H36.75M5.25 21H17.5M22.75 10.5H36.75M22.75 10.5C22.75 8.08375 20.7912 6.125 18.375 6.125C15.9588 6.125 14 8.08375 14 10.5C14 12.9162 15.9588 14.875 18.375 14.875C20.7912 14.875 22.75 12.9162 22.75 10.5ZM5.25 10.5H7M28.875 25.375C26.4588 25.375 24.5 23.4162 24.5 21C24.5 18.5838 26.4588 16.625 28.875 16.625C31.2912 16.625 33.25 18.5838 33.25 21C33.25 23.4162 31.2912 25.375 28.875 25.375Z" stroke="white" stroke-width="2" stroke-linecap="round" stroke-linejoin="round"/>
</svg>
