<svg xmlns="http://www.w3.org/2000/svg" width="64" height="64" viewBox="0 0 64 64" fill="none">
  <path d="M32 8C18.7452 8 8 18.7452 8 32C8 45.2548 18.7452 56 32 56C45.2548 56 56 45.2548 56 32C56 18.7452 45.2548 8 32 8Z" fill="url(#paint0_linear)" opacity="0.2"/>
  <path d="M46 22L30 38L18 26" stroke="url(#paint1_linear)" stroke-width="2" stroke-linecap="round" stroke-linejoin="round"/>
  <path d="M46 34L36 44L30 38" stroke="url(#paint2_linear)" stroke-width="2" stroke-linecap="round" stroke-linejoin="round"/>
  <path d="M18 38L24 44L30 38" stroke="url(#paint3_linear)" stroke-width="2" stroke-linecap="round" stroke-linejoin="round"/>
  <circle cx="30" cy="38" r="3" fill="url(#paint4_radial)"/>
  <circle cx="18" cy="26" r="2" fill="url(#paint5_linear)"/>
  <circle cx="18" cy="38" r="2" fill="url(#paint6_linear)"/>
  <circle cx="36" cy="44" r="2" fill="url(#paint7_linear)"/>
  <circle cx="46" cy="22" r="2" fill="url(#paint8_linear)"/>
  <circle cx="46" cy="34" r="2" fill="url(#paint9_linear)"/>
  <circle cx="24" cy="44" r="2" fill="url(#paint10_linear)"/>
  <defs>
    <linearGradient id="paint0_linear" x1="8" y1="32" x2="56" y2="32" gradientUnits="userSpaceOnUse">
      <stop stop-color="#5E60CE"/>
      <stop offset="1" stop-color="#FF6EC7"/>
    </linearGradient>
    <linearGradient id="paint1_linear" x1="18" y1="30" x2="46" y2="30" gradientUnits="userSpaceOnUse">
      <stop stop-color="#5E60CE"/>
      <stop offset="1" stop-color="#FF6EC7"/>
    </linearGradient>
    <linearGradient id="paint2_linear" x1="30" y1="41" x2="46" y2="41" gradientUnits="userSpaceOnUse">
      <stop stop-color="#BFC9F1"/>
      <stop offset="1" stop-color="#F2FAFF"/>
    </linearGradient>
    <linearGradient id="paint3_linear" x1="18" y1="41" x2="30" y2="41" gradientUnits="userSpaceOnUse">
      <stop stop-color="#BFC9F1"/>
      <stop offset="1" stop-color="#F2FAFF"/>
    </linearGradient>
    <radialGradient id="paint4_radial" cx="0" cy="0" r="1" gradientUnits="userSpaceOnUse" gradientTransform="translate(30 38) rotate(90) scale(3)">
      <stop stop-color="#FFFFFF"/>
      <stop offset="1" stop-color="#BFC9F1"/>
    </radialGradient>
    <linearGradient id="paint5_linear" x1="16" y1="26" x2="20" y2="26" gradientUnits="userSpaceOnUse">
      <stop stop-color="#5E60CE"/>
      <stop offset="1" stop-color="#7E7FF1"/>
    </linearGradient>
    <linearGradient id="paint6_linear" x1="16" y1="38" x2="20" y2="38" gradientUnits="userSpaceOnUse">
      <stop stop-color="#5E60CE"/>
      <stop offset="1" stop-color="#7E7FF1"/>
    </linearGradient>
    <linearGradient id="paint7_linear" x1="34" y1="44" x2="38" y2="44" gradientUnits="userSpaceOnUse">
      <stop stop-color="#5E60CE"/>
      <stop offset="1" stop-color="#7E7FF1"/>
    </linearGradient>
    <linearGradient id="paint8_linear" x1="44" y1="22" x2="48" y2="22" gradientUnits="userSpaceOnUse">
      <stop stop-color="#FF6EC7"/>
      <stop offset="1" stop-color="#FF8ED6"/>
    </linearGradient>
    <linearGradient id="paint9_linear" x1="44" y1="34" x2="48" y2="34" gradientUnits="userSpaceOnUse">
      <stop stop-color="#FF6EC7"/>
      <stop offset="1" stop-color="#FF8ED6"/>
    </linearGradient>
    <linearGradient id="paint10_linear" x1="22" y1="44" x2="26" y2="44" gradientUnits="userSpaceOnUse">
      <stop stop-color="#5E60CE"/>
      <stop offset="1" stop-color="#7E7FF1"/>
    </linearGradient>
  </defs>
</svg> 